<?xml version="1.0" encoding="utf-8"?>
<!-- Generator: Adobe Illustrator 21.1.0, SVG Export Plug-In . SVG Version: 6.00 Build 0)  -->
<!DOCTYPE svg PUBLIC "-//W3C//DTD SVG 1.1//EN" "http://www.w3.org/Graphics/SVG/1.1/DTD/svg11.dtd">
<svg version="1.1" id="Layer_1" xmlns="http://www.w3.org/2000/svg" xmlns:xlink="http://www.w3.org/1999/xlink" x="0px" y="0px"
	 viewBox="0 0 24 22.8" style="enable-background:new 0 0 24 22.8;" xml:space="preserve">
<g>
	<path d="M12,2.9C7,2.9,2.9,7,2.9,12c0,5,4.1,9.1,9.1,9.1c5,0,9.1-4.1,9.1-9.1C21.1,7,17,2.9,12,2.9z M12,20.4
		c-4.6,0-8.4-3.8-8.4-8.4c0-4.6,3.8-8.4,8.4-8.4c4.6,0,8.4,3.8,8.4,8.4C20.4,16.6,16.6,20.4,12,20.4z"/>
	<path d="M10.4,7.1C10.3,7,10.1,7,10,7.1C9.9,7.2,9.9,7.3,9.9,7.4c0,0.1,0,0.2,0.1,0.2l4.5,4.5L10,16.5c-0.1,0.1-0.1,0.1-0.1,0.2
		c0,0.1,0,0.2,0.1,0.2c0.1,0.1,0.1,0.1,0.2,0.1c0.1,0,0.2,0,0.2-0.1l4.7-4.7c0.1-0.1,0.1-0.1,0.1-0.2s0-0.2-0.1-0.2L10.4,7.1z"/>
</g>
</svg>
