<?xml version="1.0" encoding="utf-8"?>
<!-- Generator: Adobe Illustrator 21.1.0, SVG Export Plug-In . SVG Version: 6.00 Build 0)  -->
<!DOCTYPE svg PUBLIC "-//W3C//DTD SVG 1.1//EN" "http://www.w3.org/Graphics/SVG/1.1/DTD/svg11.dtd">
<svg version="1.1" id="Layer_1" xmlns="http://www.w3.org/2000/svg" xmlns:xlink="http://www.w3.org/1999/xlink" x="0px" y="0px"
	 viewBox="0 0 100 90" style="enable-background:new 0 0 100 90;" xml:space="preserve">
<title>Artboard 1 Copy 52</title>
<desc>Created with Sketch.</desc>
<g>
	<g>
		<path d="M50,86c-19.9,0-36-16.1-36-36s16.1-36,36-36s36,16.1,36,36S69.9,86,50,86 M50,10c-22.1,0-40,17.9-40,40s17.9,40,40,40
			s40-17.9,40-40S72.1,10,50,10"/>
		<path d="M20,48h-2c-1.1,0-2,0.9-2,2c0,1.1,0.9,2,2,2h2c1.1,0,2-0.9,2-2C22,48.9,21.1,48,20,48"/>
		<path d="M82,48h-2c-1.1,0-2,0.9-2,2c0,1.1,0.9,2,2,2h2c1.1,0,2-0.9,2-2C84,48.9,83.1,48,82,48"/>
		<path d="M50,22c1.1,0,2-0.9,2-2v-2c0-1.1-0.9-2-2-2c-1.1,0-2,0.9-2,2v2C48,21.1,48.9,22,50,22"/>
		<path d="M27.4,69.8L26,71.2c-0.8,0.8-0.8,2,0,2.8c0.8,0.8,2,0.8,2.8,0l1.4-1.4c0.8-0.8,0.8-2,0-2.8C29.4,69,28.2,69,27.4,69.8"/>
		<path d="M28.8,26c-0.8-0.8-2-0.8-2.8,0c-0.8,0.8-0.8,2,0,2.8l1.4,1.4c0.8,0.8,2,0.8,2.8,0c0.8-0.8,0.8-2,0-2.8L28.8,26z"/>
		<path d="M72.6,69.8c-0.8-0.8-2-0.8-2.8,0c-0.8,0.8-0.8,2,0,2.8l1.4,1.4c0.8,0.8,2,0.8,2.8,0c0.8-0.8,0.8-2,0-2.8L72.6,69.8z"/>
		<path d="M72.6,30.2l1.4-1.4c0.8-0.8,0.8-2,0-2.8c-0.8-0.8-2-0.8-2.8,0l-1.4,1.4c-0.8,0.8-0.8,2,0,2.8C70.6,31,71.8,31,72.6,30.2"
			/>
		<path d="M54.2,54.2C53.1,55.4,51.6,56,50,56c-1.6,0-3.1-0.6-4.2-1.8c-2.3-2.3-2.3-6.1,0-8.5c2.1-2.1,11.1-6.4,17.7-9.2
			C60.6,43.2,56.3,52.1,54.2,54.2 M66.4,31.4c-0.7,0-1.6,0.2-2.6,0.7c0,0-16.9,6.9-20.8,10.8c-3.9,3.9-3.9,10.2,0,14.1
			c2,2,4.5,2.9,7.1,2.9c2.6,0,5.1-1,7.1-2.9c3.9-3.9,10.8-20.8,10.8-20.8C69.2,33.2,68.5,31.4,66.4,31.4"/>
	</g>
</g>
</svg>
