<?xml version="1.0" encoding="utf-8"?>
<!-- Generator: Adobe Illustrator 21.1.0, SVG Export Plug-In . SVG Version: 6.00 Build 0)  -->
<!DOCTYPE svg PUBLIC "-//W3C//DTD SVG 1.1//EN" "http://www.w3.org/Graphics/SVG/1.1/DTD/svg11.dtd">
<svg version="1.1" id="Layer_1" xmlns="http://www.w3.org/2000/svg" xmlns:xlink="http://www.w3.org/1999/xlink" x="0px" y="0px"
	 viewBox="0 0 100 89.8" style="enable-background:new 0 0 100 89.8;" xml:space="preserve">
<title>135all</title>
<path d="M50,10.2c-24.8,0-38.2,6.1-38.2,11.9v56.3c0,0.2,0.1,0.3,0.1,0.5c1.4,5.4,14.7,10.8,38.1,10.8c24.5,0,37.9-6,38.2-11.7
	c0,0,0,0,0-0.1v-56C88.2,16.3,74.8,10.2,50,10.2z M50,12.2c21.3,0,36.2,5.2,36.2,9.9S71.3,31.9,50,31.9s-36.2-5.2-36.2-9.9
	S28.7,12.2,50,12.2z M13.8,44.5c4.6,4.3,17,8,36.2,8s31.6-3.7,36.2-8v14.8c0,4.7-14.9,9.9-36.2,9.9S13.8,64,13.8,59.3V44.5z
	 M50,50.5c-21.3,0-36.2-5.2-36.2-9.8V25.9c4.6,4.3,17,8,36.2,8s31.6-3.7,36.2-8v14.8C86.2,45.4,71.3,50.5,50,50.5L50,50.5z M50,87.7
	c-21.3,0-36.2-5.2-36.2-9.8V63.1c4.6,4.3,17,8,36.2,8s31.6-3.7,36.2-8v14.8C86.2,82.6,71.3,87.8,50,87.7L50,87.7z"/>
</svg>
