<?xml version="1.0" encoding="utf-8"?>
<!-- Generator: Adobe Illustrator 21.1.0, SVG Export Plug-In . SVG Version: 6.00 Build 0)  -->
<!DOCTYPE svg PUBLIC "-//W3C//DTD SVG 1.1//EN" "http://www.w3.org/Graphics/SVG/1.1/DTD/svg11.dtd">
<svg version="1.1" id="Layer_1" xmlns="http://www.w3.org/2000/svg" xmlns:xlink="http://www.w3.org/1999/xlink" x="0px" y="0px"
	 viewBox="0 0 100 100" style="enable-background:new 0 0 100 100;" xml:space="preserve">
<style type="text/css">
	.st0{fill:#010101;}
</style>
<path class="st0" d="M50,0C22.4,0,0,22.4,0,50s22.4,50,50,50s50-22.4,50-50S77.6,0,50,0z M50,12.5c8.1,0,15.5,2.6,21.7,7L19.5,71.7
	c-4.4-6.1-7-13.6-7-21.7C12.5,29.3,29.3,12.5,50,12.5z M50,87.5c-8.1,0-15.5-2.6-21.7-7l52.2-52.1c4.4,6.1,7,13.6,7,21.7
	C87.5,70.7,70.7,87.5,50,87.5z"/>
</svg>
