<?xml version="1.0" encoding="utf-8"?>
<!-- Generator: Adobe Illustrator 21.1.0, SVG Export Plug-In . SVG Version: 6.00 Build 0)  -->
<!DOCTYPE svg PUBLIC "-//W3C//DTD SVG 1.1//EN" "http://www.w3.org/Graphics/SVG/1.1/DTD/svg11.dtd">
<svg version="1.1" id="Layer_1" xmlns="http://www.w3.org/2000/svg" xmlns:xlink="http://www.w3.org/1999/xlink" x="0px" y="0px"
	 viewBox="0 0 73 85.2" style="enable-background:new 0 0 73 85.2;" xml:space="preserve">
<g transform="matrix(1,0,0,1,-4069,-550)">
	<g transform="matrix(1,0,0,1,4055.24,541.584)">
		<g transform="matrix(0.944812,0,0,0.91954,-3828.68,-489.847)">
			<path d="M4111.3,619.5c0.2,0,0.4,0,0.6,0.1c0.5,0.2,1,0.6,1.2,1.1c0.1,0.2,0.1,0.3,0.1,0.5c0,0.1,0,0.1,0,0.2c0,0.7,0,1.5,0,2.2
				c0,0.4,0,0.8-0.1,1.1c-0.1,0.7-0.3,1.4-0.6,2.1c-0.4,0.8-0.9,1.5-1.5,2.2c-0.6,0.6-1.3,1.2-2.1,1.6c-0.7,0.4-1.4,0.6-2.1,0.8
				c-1.1,0.2-2.3,0.2-3.4,0c-0.7-0.2-1.5-0.4-2.1-0.8c-0.7-0.4-1.4-0.9-2-1.5c-0.6-0.7-1.2-1.5-1.6-2.3c-0.3-0.6-0.5-1.3-0.6-2
				c0-0.3-0.1-0.7-0.1-1c0-0.7,0-1.5,0-2.2c0-0.2,0-0.4,0.1-0.6c0.2-0.6,0.6-1.1,1.2-1.3c0.2-0.1,0.4-0.1,0.7-0.2
				C4103.2,619.4,4107.3,619.4,4111.3,619.5z M4099.3,621.7c0,0.7,0,1.4,0,2.1c0,0.1,0,0.2,0,0.3c0,0.3,0.1,0.5,0.1,0.8
				c0.1,0.5,0.3,0.9,0.5,1.4c0.3,0.6,0.6,1.1,1.1,1.5c0.4,0.4,0.8,0.7,1.2,1c1.3,0.8,2.9,1,4.3,0.7c0.6-0.1,1.1-0.3,1.6-0.6
				c0.6-0.3,1.1-0.7,1.5-1.2c0.5-0.5,0.9-1.1,1.1-1.7c0.3-0.7,0.5-1.5,0.5-2.3v-1.9C4107.2,621.7,4103.3,621.7,4099.3,621.7z
				 M4105.2,542.5c0.4,0,0.8,0,1.1,0.1c0.7,0.1,1.4,0.4,2,0.8c0.5,0.3,0.9,0.6,1.3,0.9c0.9,0.9,1.6,2,1.9,3.2c0.1,0.5,0.2,1,0.2,1.5
				v0.1v2.1c0.2,0,0.4,0.1,0.6,0.1c1.1,0.3,2.2,0.6,3.3,1c2.2,0.8,4.2,1.8,6.2,3c2.9,1.8,5.5,4.1,7.7,6.8c2.6,3.2,4.6,7,5.8,11.1
				c0.4,1.5,0.8,3.1,0.9,4.7c0.1,1.2,0.2,2.5,0.2,3.7v21.1c2.1,2.8,4.2,5.6,6.3,8.5c0,0.1,0.1,0.2,0.2,0.2c0.2,0.4,0.4,0.9,0.5,1.4
				c0.1,0.4,0.1,0.8,0,1.3c-0.1,0.9-0.5,1.7-1.1,2.3c-0.4,0.4-0.8,0.7-1.3,0.9c-0.5,0.2-1,0.3-1.6,0.3c-22.7,0.2-45.5,0.2-68.2,0
				c-0.6,0-1.2-0.2-1.7-0.4c-0.5-0.2-0.9-0.6-1.2-1c-0.6-0.7-0.9-1.5-1-2.4c0-0.4,0-0.8,0.1-1.3c0.1-0.5,0.4-1,0.6-1.4l0-0.1
				l6.2-8.4c0-7.2-0.1-14.3,0-21.5c0-1.1,0.1-2.1,0.2-3.1c0.2-1.9,0.6-3.7,1.1-5.5c1-3.3,2.6-6.4,4.6-9.2c2.4-3.3,5.4-6.1,8.9-8.2
				c1.9-1.2,4-2.2,6.2-2.9c1.1-0.4,2.2-0.7,3.3-0.9l0.1,0c0-0.8,0-1.5,0-2.3c0-0.1,0-0.2,0-0.3c0-0.4,0.1-0.9,0.2-1.3
				c0.3-1.1,1-2.2,1.8-3c0.4-0.4,0.8-0.7,1.3-0.9c0.6-0.4,1.4-0.6,2.1-0.8c0.3-0.1,0.7-0.1,1-0.1
				C4105,542.5,4105.1,542.5,4105.2,542.5z M4105,544.7c-0.7,0-1.4,0.2-2.1,0.5c-0.3,0.2-0.6,0.4-0.9,0.6c-0.7,0.6-1.1,1.4-1.3,2.3
				c-0.1,0.3-0.1,0.6-0.1,0.9v3c0,0.2,0,0.2-0.1,0.4c-0.1,0.2-0.2,0.4-0.5,0.6c-0.1,0.1-0.2,0.1-0.3,0.1c-0.3,0.1-0.5,0.1-0.8,0.2
				c-1.1,0.2-2.1,0.5-3.2,0.9c-2.2,0.7-4.2,1.7-6.1,3c-2.4,1.5-4.6,3.4-6.5,5.6c-2.7,3.2-4.7,6.9-5.9,11c-0.4,1.5-0.7,3-0.9,4.5
				c-0.1,1.1-0.2,2.2-0.2,3.3v21.5c0,0.1,0,0.1,0,0.2c0,0.1-0.1,0.2-0.1,0.3c0,0.1-0.1,0.1-0.1,0.1c-2.2,2.9-4.5,5.8-6.5,8.8
				c-0.1,0.2-0.2,0.4-0.3,0.6c0,0.2-0.1,0.4,0,0.5c0,0.2,0,0.3,0.1,0.5c0.2,0.5,0.6,1,1.1,1.2c0.2,0.1,0.5,0.1,0.7,0.1
				c22.7,0.2,45.5,1,68.2,0c0.2,0,0.4-0.1,0.6-0.1c0.5-0.2,1-0.7,1.1-1.2c0-0.2,0.1-0.3,0.1-0.5c0-0.2,0-0.4-0.1-0.5
				c-0.1-0.2-0.2-0.4-0.3-0.6l0,0l-6.5-8.7l-0.1-0.1c-0.1-0.1-0.1-0.2-0.1-0.3c0-0.1,0-0.1,0-0.2c0-7.3,0.1-14.6,0-21.8
				c0-1-0.1-2.1-0.2-3.1c-0.2-1.6-0.5-3.2-1-4.7c-1.1-3.7-2.9-7.1-5.3-10c-2.2-2.8-5-5.1-8.1-6.9c-1.9-1.1-3.8-1.9-5.9-2.6
				c-1.1-0.3-2.3-0.6-3.4-0.8l-0.2,0c-0.2-0.1-0.2-0.1-0.3-0.2c-0.2-0.2-0.3-0.4-0.4-0.6c0-0.1,0-0.1,0-0.2c0-1,0-2.1,0-3.1
				c0-0.3,0-0.6-0.1-0.9c-0.2-0.8-0.6-1.6-1.2-2.1c-0.3-0.2-0.6-0.5-0.9-0.6c-0.4-0.2-0.9-0.4-1.4-0.5c-0.3,0-0.5-0.1-0.8-0.1
				C4105.1,544.7,4105.1,544.7,4105,544.7z"/>
		</g>
	</g>
</g>
</svg>
