<?xml version="1.0" encoding="utf-8"?>
<!-- Generator: Adobe Illustrator 21.1.0, SVG Export Plug-In . SVG Version: 6.00 Build 0)  -->
<!DOCTYPE svg PUBLIC "-//W3C//DTD SVG 1.1//EN" "http://www.w3.org/Graphics/SVG/1.1/DTD/svg11.dtd">
<svg version="1.1" id="Layer_1" xmlns="http://www.w3.org/2000/svg" xmlns:xlink="http://www.w3.org/1999/xlink" x="0px" y="0px"
	 viewBox="0 0 70 64.6" style="enable-background:new 0 0 70 64.6;" xml:space="preserve">
<g>
	<g>
		<g>
			<path d="M49.2,60H20.8c-1.7,0-3.1-1.4-3.1-3.1V19.4c0-1.7,1.4-3.1,3.1-3.1h9c0.6,0,1,0.4,1,1v2.6h8.4v-2.6c0-0.6,0.4-1,1-1h9
				c1.7,0,3.1,1.4,3.1,3.1v37.5C52.2,58.6,50.9,60,49.2,60z M20.8,18.3c-0.6,0-1.1,0.5-1.1,1.1v37.5c0,0.6,0.5,1.1,1.1,1.1h28.4
				c0.6,0,1.1-0.5,1.1-1.1V19.4c0-0.6-0.5-1.1-1.1-1.1h-8v2.6c0,0.6-0.4,1-1,1H29.8c-0.6,0-1-0.4-1-1v-2.6H20.8z"/>
		</g>
	</g>
	<g>
		<g>
			<path d="M42.9,44.9H27.1c-0.6,0-1-0.4-1-1c0-4.9,4-8.9,8.9-8.9c4.9,0,8.9,4,8.9,8.9C43.9,44.5,43.5,44.9,42.9,44.9z M28.1,42.9
				h13.7C41.4,39.6,38.5,37,35,37C31.5,37,28.6,39.6,28.1,42.9z"/>
		</g>
	</g>
	<g>
		<g>
			<path d="M35,33.7c-2.3,0-4.2-1.9-4.2-4.2c0-2.3,1.9-4.2,4.2-4.2c2.3,0,4.2,1.9,4.2,4.2C39.2,31.8,37.3,33.7,35,33.7z M35,27.3
				c-1.2,0-2.2,1-2.2,2.2c0,1.2,1,2.2,2.2,2.2c1.2,0,2.2-1,2.2-2.2C37.2,28.3,36.2,27.3,35,27.3z"/>
		</g>
	</g>
	<g>
		<g>
			<path d="M25.3,54.7c-0.6,0-1-0.4-1-1v-3.9c0-0.6,0.4-1,1-1s1,0.4,1,1v3.9C26.3,54.2,25.9,54.7,25.3,54.7z"/>
		</g>
	</g>
	<g>
		<g>
			<path d="M28.5,54.7c-0.6,0-1-0.4-1-1v-3.9c0-0.6,0.4-1,1-1s1,0.4,1,1v3.9C29.5,54.2,29.1,54.7,28.5,54.7z"/>
		</g>
	</g>
	<g>
		<g>
			<path d="M31.8,54.7c-0.6,0-1-0.4-1-1v-3.9c0-0.6,0.4-1,1-1s1,0.4,1,1v3.9C32.8,54.2,32.3,54.7,31.8,54.7z"/>
		</g>
	</g>
	<g>
		<g>
			<path d="M35,54.7c-0.6,0-1-0.4-1-1v-3.9c0-0.6,0.4-1,1-1s1,0.4,1,1v3.9C36,54.2,35.6,54.7,35,54.7z"/>
		</g>
	</g>
	<g>
		<g>
			<path d="M38.2,54.7c-0.6,0-1-0.4-1-1v-3.9c0-0.6,0.4-1,1-1s1,0.4,1,1v3.9C39.2,54.2,38.8,54.7,38.2,54.7z"/>
		</g>
	</g>
	<g>
		<g>
			<path d="M41.5,54.7c-0.6,0-1-0.4-1-1v-3.9c0-0.6,0.4-1,1-1s1,0.4,1,1v3.9C42.5,54.2,42,54.7,41.5,54.7z"/>
		</g>
	</g>
	<g>
		<g>
			<path d="M44.7,54.7c-0.6,0-1-0.4-1-1v-3.9c0-0.6,0.4-1,1-1s1,0.4,1,1v3.9C45.7,54.2,45.2,54.7,44.7,54.7z"/>
		</g>
	</g>
	<g>
		<g>
			<path d="M40.2,21.9H29.8c-0.6,0-1-0.4-1-1V11c0-0.6,0.4-1,1-1h10.4c0.6,0,1,0.4,1,1v9.9C41.2,21.5,40.7,21.9,40.2,21.9z
				 M30.8,19.9h8.4V12h-8.4V19.9z"/>
		</g>
	</g>
</g>
</svg>
